# xmcd
#
# Track frame offsets: 
#        150
#        13102
#        35632
#        59324
#        95091
#        114426
#        139813
#        159463
#        180643
#        213605
#        266877
#        286017
#        291072
#        295849
#        300371
#        305891
#        310683
#
# Disc length: 4283 seconds
#
# Revision: 0
# Processed by: cddbd v1.5.2PL0 Copyright (c) Steve Scherf et al.
# Submitted via: ExactAudioCopy v1.0b3
#
DISCID=fe10b911
DTITLE=cosMo@暴走P feat.初音ミク・GUMI - 星ノ少女ト幻奏楽土(ホシノショウジョトゲンソウラクド)
DYEAR=2012
DGENRE=
TTITLE0=cosMo@暴走P feat.巡音ルカ - 星の少女と幻想楽土
TTITLE1=cosMo@暴走P feat.GUMI - 家出少年と迷子少女
TTITLE2=cosMo@暴走P feat.初音ミク - 修道少女と偶像少女
TTITLE3=cosMo@暴走P feat.GUMI - 童心少女と大人世界
TTITLE4=cosMo@暴走P feat.初音ミク - ボクらのコスモロジー
TTITLE5=cosMo@暴走P feat.神威がくぽ - Dr.リアリスト
TTITLE6=cosMo@暴走P feat.初音ミク - 冒険少女と箱庭遊戯
TTITLE7=cosMo@暴走P feat.初音ミク - 電波少女と空想庭園
TTITLE8=cosMo@暴走P feat.鏡音リン・レン - 転生少女と転生少年
TTITLE9=cosMo@暴走P feat.巡音ルカ・鏡音リン・神威がくぽ・初音ミク・GUMI - AI少女と深層心海
TTITLE10=cosMo@暴走P feat.巡音ルカ・鏡音リン・神威がくぽ - 浅紫色のエンドロール
TTITLE11=cosMo@暴走P feat.神威がくぽ・GUMI - 「もう一つの迷子少女」
TTITLE12=cosMo@暴走P feat.神威がくぽ・初音ミク - 「ワガママな少女と☆」
TTITLE13=cosMo@暴走P feat.神威がくぽ・GUMI - 「君は年齢的に少女ではない少女」
TTITLE14=cosMo@暴走P feat.神威がくぽ - 「病室の少女と☆」
TTITLE15=cosMo@暴走P feat.神威がくぽ・初音ミク  - 「最凶の少女と☆」
TTITLE16=cosMo@暴走P feat.神威がくぽ・鏡音リン - 「転生」
EXTD=
EXTT0=
EXTT1=
EXTT2=
EXTT3=
EXTT4=
EXTT5=
EXTT6=
EXTT7=
EXTT8=
EXTT9=
EXTT10=
EXTT11=
EXTT12=
EXTT13=
EXTT14=
EXTT15=
EXTT16=
PLAYORDER=
